#N canvas 774 23 1709 912 10;
#X obj 19 -109 gemwin;
#X msg 19 -130 create \, 1;
#X floatatom 1362 732 5 0 0 0 - - -;
#X obj 19 -152 loadbang;
#X obj 1422 609 loadbang;
#X msg 70 -111 destroy \, 0;
#X obj 16 42 gemhead 1;
#X obj 1362 753 phasor~;
#X obj 590 151 / 360;
#X floatatom 590 221 0 0 0 0 - - -;
#X text 648 219 Radian;
#X floatatom 590 124 5 0 0 0 - - -;
#X obj 589 -14 tgl 15 0 empty empty empty 17 7 0 10 -262144 -1 -1 1
1;
#X floatatom 1066 203 0 0 0 0 - - -;
#X obj 1001 366 sig~;
#X floatatom 1417 732 5 0 0 0 - - -;
#X obj 1417 754 phasor~;
#X floatatom 1117 698 5 0 0 0 - - -;
#X floatatom 156 127 5 0 0 0 - - -;
#X obj 1280 473 delay;
#X obj 1201 450 delay~;
#X obj 590 198 * 1;
#X obj 588 -39 loadbang;
#X obj 1419 775 cos~;
#X floatatom 1466 732 5 0 0 0 - - -;
#X obj 1466 754 phasor~;
#X obj 1468 775 cos~;
#X obj 1362 702 * 1;
#X msg 1415 633 100;
#X msg 1386 634 1;
#X msg 1440 631 4;
#X msg 1471 662 5;
#X floatatom 1415 662 5 0 0 0 - - -;
#X obj 17 169 scaleXYZ 1 1 1;
#X obj 156 76 loadbang;
#X msg 156 101 1.8;
#X msg 194 101 1;
#X msg 1184 577 3.14159;
#X msg 1184 599 6.28319;
#X msg 1183 646 13.6637;
#X msg 1184 621 9.42478;
#X text 1254 600 2 x Pi;
#X text 1253 622 3 x Pi;
#X text 1253 648 4 x Pi;
#X msg 1182 692 18.8496;
#X text 1255 690 6 x Pi;
#X msg 1183 668 15.708;
#X text 1254 669 5 x Pi;
#X obj 589 32 t b;
#X obj 589 67 i;
#X obj 616 68 + 1;
#X obj 643 69 % 360;
#X text 35 -71 dsp ON/OFF;
#X floatatom 18 -2 5 0 0 0 - - -;
#X obj 18 -51 dsp;
#X obj 18 -71 tgl 15 1 empty dsp_tgl empty 8 -8 0 10 -262144 -1 -1
1 1;
#X text 66 -1 % mean-cpu-load;
#X floatatom 33 -27 5 0 0 0 - - -;
#X text 79 -27 % peak-cpu-load;
#X obj 857 750 t a b;
#X floatatom 897 679 5 0 0 0 - - -;
#X msg 897 654 0;
#N canvas 5 103 297 145 count 0;
#X obj 116 39 t b;
#X obj 116 60 i;
#X obj 143 61 + 1;
#X obj 170 62 % 360;
#X obj 116 17 inlet;
#X obj 116 94 outlet;
#X connect 0 0 1 0;
#X connect 1 0 2 0;
#X connect 1 0 5 0;
#X connect 2 0 3 0;
#X connect 3 0 1 1;
#X connect 4 0 0 0;
#X restore 1037 683 pd count;
#X obj 857 701 rotate 1 0 1 0;
#X obj 589 9 metro 100;
#X floatatom 675 -56 5 0 0 0 - - -;
#X msg 785 -84 9;
#X msg 721 -85 3;
#X obj 675 -139 loadbang;
#X floatatom 1239 412 5 0 0 0 - - -;
#X floatatom 1304 405 5 0 0 0 - - -;
#X obj 589 99 line 50;
#X floatatom 80 73 5 0 0 0 - - -;
#X obj 335 207 repeat 5;
#X msg 1234 527 1 1 2 3 5 8 13 21 44 fibonacchi;
#X msg 675 -107 0;
#X msg 152 43 1;
#X floatatom 1284 212 5 0 0 0 - - -;
#X floatatom 500 -71 5 0 0 0 - - -;
#X obj 512 -41 repeat 1;
#X floatatom 825 -21 5 0 0 0 - - -;
#X msg 705 -107 1;
#X msg 736 -106 2;
#X msg 1310 178 0;
#X msg 1308 163 1;
#X obj 965 245 repeat 1;
#X obj 1027 236 repeat 1;
#X obj 1092 246 repeat 1;
#X obj 1363 780 cos~;
#X obj 1379 809 *~;
#X obj 1083 280 sig~;
#X msg 757 -84 4;
#X obj 808 465 nbx 5 14 -1e+37 1e+37 0 1 empty empty Xrotation 0 -8
0 10 -4034 -1 -1 360 256;
#X obj 808 504 sig~;
#X obj 907 465 nbx 5 14 -1e+37 1e+37 0 1 empty empty Yrotation 0 -8
0 10 -4034 -1 -1 360 256;
#X obj 907 505 sig~;
#X obj 997 464 nbx 5 14 -1e+37 1e+37 0 1 empty empty Zrotation 0 -8
0 10 -4034 -1 -1 360 256;
#X obj 997 504 sig~;
#X obj 808 483 / 360;
#X obj 907 483 / 360;
#X obj 997 483 / 360;
#X obj 807 543 nbx 5 14 -1e+37 1e+37 0 1 empty empty freq/100 0 -8
0 10 -4034 -1 -1 0 256;
#X obj 807 597 phasor~;
#X obj 907 543 nbx 5 14 -1e+37 1e+37 0 1 empty empty freq/100 0 -8
0 10 -4034 -1 -1 0 256;
#X obj 907 597 phasor~;
#X obj 997 543 nbx 5 14 -1e+37 1e+37 0 1 empty empty freq/100 0 -8
0 10 -4034 -1 -1 0 256;
#X obj 997 597 phasor~;
#X obj 997 567 / 100;
#X obj 907 567 / 100;
#X obj 807 567 / 100;
#X obj 635 401 VS-rotate;
#X obj 305 763 scopeXYZ~ 16284;
#X floatatom 833 -95 5 0 0 0 - - -;
#X text 879 -19 < TU ZMIEN 360 %;
#X msg 825 -47 360;
#X msg 797 -128 1;
#X msg 934 -45 98;
#X text 1073 538 < TRZYMAJ MALA FREQ do 20;
#X msg 896 -47 163;
#X msg 862 -48 283;
#X msg 833 -129 3;
#X obj 833 -160 loadbang;
#X obj 590 171 * 1;
#X obj 444 146 / 360;
#X text 507 166 2 x Pi;
#X floatatom 444 216 0 0 0 0 - - -;
#X text 507 216 Radian;
#X floatatom 444 116 5 0 0 0 - - -;
#X obj 444 89 line;
#X msg 530 65 0;
#X obj 444 42 t b b;
#X obj 444 -3 tgl 15 0 empty empty empty 17 7 0 10 -262144 -1 -1 10000
10000;
#X obj 444 193 * 1;
#X obj 443 -28 loadbang;
#X obj 444 166 * 6.28319;
#X obj 444 20 metro 10000;
#X obj 1027 11 hsl 128 15 0 10 0 0 empty empty empty -2 -8 0 10 -262144
-1 -1 1270 1;
#X msg 1024 -42 1;
#X msg 1062 -43 2;
#X msg 1097 -43 3;
#X floatatom 1024 -12 5 0 0 0 - - -;
#X floatatom 1123 46 5 0 0 0 - - -;
#X text 208 -146 CLASS of Cinquefoil KNOTS GENERAL FORMULA For Pd $f1
= v $f2 = k x = cos($f1)*(2 - cos(2*$f1/(2*$f2 + 1))) y = sin($f1)*(2
- cos(2*$f1/(2*$f2 + 1))) z = -sin(2*$f1/(2*$f2 + 1)) *2 where 0 <
u < (4* $f2 + 2)*pi;
#X msg 549 119 50;
#X msg 956 -140 20;
#X text 872 -96 < TU ZMIEN i od 1 do 100 !!;
#X text 1021 -65 MAIN UWAGA! zmienna k czyli $f2 zmienia knot;
#X msg 380 20 1000;
#X msg 379 42 100;
#X msg 380 -2 10000;
#X msg 907 -131 10;
#X msg 997 -140 30;
#X msg 899 -155 5;
#X msg 797 -151 2.5;
#X text 1028 -140 < 20 i 30 sa interesujacy geometry \, zmieniaj razem
z parametrem k;
#X text 1119 -7 0 - 10;
#X obj 531 -93 hsl 128 15 0 10 0 0 empty empty empty -2 -8 0 10 -262144
-1 -1 3810 1;
#X msg 528 -146 1;
#X msg 566 -147 2;
#X msg 601 -147 3;
#X floatatom 528 -116 5 0 0 0 - - -;
#X text 623 -111 0 - 10;
#X msg 1132 -42 4;
#X msg 1164 -40 5;
#X msg 1193 -40 6;
#X msg 1228 -39 7;
#X msg 1258 -38 8;
#X obj 1044 -86 loadbang;
#X floatatom 751 80 5 0 0 0 - - -;
#X obj 763 110 repeat 1;
#X msg 696 55 360;
#X floatatom 696 80 5 0 0 0 - - -;
#X obj 16 338 color 0 1 0;
#X msg 48 309 1 1 1;
#X msg 48 258 0 1 0;
#X msg 47 285 1 1 0;
#X floatatom 362 249 5 0 0 0 - - -;
#X msg 753 56 720;
#X msg 770 -127 0;
#X obj 1416 702 * 1.2;
#X obj 1465 701 * 1.3;
#X floatatom 1404 220 5 0 0 0 - - -;
#X floatatom 1445 219 5 0 0 0 - - -;
#X floatatom 1488 219 5 0 0 0 - - -;
#X floatatom 1475 140 5 0 0 0 - - -;
#X obj 1489 259 * 1.2;
#X obj 1446 259 * 1.2;
#X obj 1405 260 * 1.2;
#X obj 1289 278 sig~;
#X obj 1377 286 sig~;
#X obj 1479 285 sig~;
#X msg 142 -76 bang;
#X msg 163 -58 1 1 2 3 5 8 13 21 44 fibonacchi;
#X text 177 -83 repeat bangs;
#X text 396 -56 repeat a list;
#X obj 16 72 repeat 1;
#X obj 1472 -31 expr min;
#X msg 824 66 set 1.2 2.3 4.4;
#X text 944 66 the 'set' commands sets the initial previous values
;
#X obj 697 252 sig~;
#X obj 592 288 s~ radians;
#X obj 853 24 r~ radians;
#X obj 555 244 sig~;
#X floatatom 954 22 5 0 0 0 - - -;
#X obj 1277 381 snapshot~;
#X floatatom 1277 406 0 0 0 0 - - -;
#X floatatom 1197 259 0 0 0 0 - - -;
#X obj 1277 331 loadbang;
#X obj 1277 355 metro 200;
#X text 1227 258 <- Scroll to set value;
#X obj 1197 284 sig~;
#X msg 444 67 360 10000;
#X obj 638 168 expr (4*$f2+2)*3.14159;
#X obj 639 141 r radians1;
#X obj 445 256 s radians1;
#X obj 557 330 s radians;
#X obj 1404 94 r radians;
#X obj 457 285 s~ radians1;
#X floatatom 1194 85 5 0 0 0 - - -;
#X floatatom 1227 104 5 0 0 0 - - -;
#X obj 1250 13 r radians;
#X floatatom 1275 143 5 0 0 0 - - -;
#X floatatom 1323 2 5 0 0 0 - - -;
#X msg 1338 37 1;
#X obj 1305 65 + 1;
#X obj 1354 76 nbx 5 14 -1e+37 1e+37 0 1 empty empty freq/100 0 -8
0 10 -4034 -1 -1 99.32 256;
#X obj 1354 130 phasor~;
#X obj 1354 100 / 100;
#X obj 787 40 repeat 1;
#X obj 1478 84 snapshot~;
#X floatatom 1487 111 0 0 0 0 - - -;
#X obj 1478 34 loadbang;
#X obj 1478 58 metro 200;
#X obj 854 102 expr~ cos($v1)*(2 - cos(2*$v1/(2*$v2 + 1)));
#X obj 925 125 expr~ sin($v1)*(2 - cos(2*$v1/(2*$v2 + 1)));
#X obj 1037 169 expr~ -sin(2*$v1/(2*$v2 + 1)) *2;
#X obj 1427 142 + 1;
#X floatatom 1424 178 5 0 0 0 - - -;
#X msg 867 -129 8;
#X msg 80 43 2;
#X obj 270 33 nbx 5 14 -1e+37 1e+37 0 1 empty empty freq/100 0 -8 0
10 -4034 -1 -1 5 256;
#X floatatom 270 77 5 0 0 0 - - -;
#X obj 16 123 translateXYZ 0 0 0;
#X msg 333 61 2;
#X msg 341 90 1;
#X obj 270 57 / 100;
#X floatatom 870 365 5 0 0 0 - - -;
#X msg 870 340 3;
#X obj 870 313 loadbang;
#X msg 116 43 10;
#X obj 116 19 loadbang;
#X msg 270 1 5;
#X obj 270 -27 loadbang;
#X obj 564 495 s~ m01;
#X obj 606 495 s~ m02;
#X obj 650 495 s~ m03;
#X obj 634 -157 loadbang;
#X connect 1 0 0 0;
#X connect 2 0 7 0;
#X connect 3 0 1 0;
#X connect 4 0 29 0;
#X connect 5 0 0 0;
#X connect 6 0 195 0;
#X connect 7 0 88 0;
#X connect 8 0 122 0;
#X connect 9 0 200 0;
#X connect 9 0 215 0;
#X connect 11 0 8 0;
#X connect 12 0 64 0;
#X connect 13 0 87 0;
#X connect 15 0 16 0;
#X connect 16 0 23 0;
#X connect 18 0 33 1;
#X connect 18 0 33 2;
#X connect 18 0 33 3;
#X connect 21 0 9 0;
#X connect 22 0 12 0;
#X connect 24 0 25 0;
#X connect 25 0 26 0;
#X connect 26 0 89 1;
#X connect 27 0 2 0;
#X connect 28 0 32 0;
#X connect 29 0 32 0;
#X connect 30 0 32 0;
#X connect 32 0 27 0;
#X connect 32 0 179 0;
#X connect 32 0 180 0;
#X connect 33 0 172 0;
#X connect 34 0 35 0;
#X connect 35 0 18 0;
#X connect 36 0 18 0;
#X connect 37 0 17 0;
#X connect 38 0 17 0;
#X connect 39 0 17 0;
#X connect 40 0 17 0;
#X connect 44 0 17 0;
#X connect 46 0 17 0;
#X connect 48 0 79 0;
#X connect 49 0 50 0;
#X connect 49 0 71 0;
#X connect 50 0 51 0;
#X connect 51 0 49 1;
#X connect 54 0 53 0;
#X connect 54 1 57 0;
#X connect 55 0 54 0;
#X connect 59 1 62 0;
#X connect 60 0 63 1;
#X connect 61 0 60 0;
#X connect 62 0 60 0;
#X connect 63 0 59 0;
#X connect 64 0 48 0;
#X connect 65 0 64 1;
#X connect 66 0 65 0;
#X connect 67 0 65 0;
#X connect 68 0 75 0;
#X connect 69 0 20 1;
#X connect 70 0 19 1;
#X connect 71 0 11 0;
#X connect 72 0 195 1;
#X connect 75 0 65 0;
#X connect 76 0 72 0;
#X connect 77 0 85 1;
#X connect 77 0 86 1;
#X connect 77 0 87 1;
#X connect 78 0 79 1;
#X connect 79 0 49 0;
#X connect 80 0 51 1;
#X connect 81 0 65 0;
#X connect 82 0 65 0;
#X connect 83 0 77 0;
#X connect 84 0 77 0;
#X connect 87 0 90 0;
#X connect 91 0 65 0;
#X connect 92 0 98 0;
#X connect 93 0 110 4;
#X connect 94 0 99 0;
#X connect 95 0 110 5;
#X connect 96 0 100 0;
#X connect 97 0 110 6;
#X connect 98 0 93 0;
#X connect 99 0 95 0;
#X connect 100 0 97 0;
#X connect 101 0 109 0;
#X connect 102 0 110 4;
#X connect 103 0 108 0;
#X connect 104 0 110 5;
#X connect 105 0 107 0;
#X connect 106 0 110 6;
#X connect 107 0 106 0;
#X connect 108 0 104 0;
#X connect 109 0 102 0;
#X connect 110 0 253 0;
#X connect 110 1 254 0;
#X connect 110 2 255 0;
#X connect 112 0 50 1;
#X connect 114 0 80 0;
#X connect 115 0 112 0;
#X connect 116 0 80 0;
#X connect 118 0 80 0;
#X connect 119 0 80 0;
#X connect 120 0 112 0;
#X connect 121 0 120 0;
#X connect 122 0 21 0;
#X connect 123 0 134 0;
#X connect 125 0 214 0;
#X connect 125 0 217 0;
#X connect 127 0 123 0;
#X connect 128 0 127 0;
#X connect 129 0 128 0;
#X connect 130 0 211 0;
#X connect 130 1 129 0;
#X connect 131 0 135 0;
#X connect 132 0 125 0;
#X connect 133 0 131 0;
#X connect 134 0 132 0;
#X connect 135 0 130 0;
#X connect 136 0 141 0;
#X connect 137 0 140 0;
#X connect 138 0 140 0;
#X connect 139 0 140 0;
#X connect 140 0 136 0;
#X connect 141 0 212 1;
#X connect 141 0 233 1;
#X connect 141 0 234 1;
#X connect 141 0 235 1;
#X connect 143 0 71 2;
#X connect 144 0 112 0;
#X connect 147 0 135 1;
#X connect 147 0 131 0;
#X connect 148 0 135 1;
#X connect 148 0 131 0;
#X connect 149 0 135 1;
#X connect 149 0 131 0;
#X connect 150 0 112 0;
#X connect 151 0 112 0;
#X connect 152 0 112 0;
#X connect 153 0 112 0;
#X connect 156 0 78 0;
#X connect 157 0 160 0;
#X connect 158 0 160 0;
#X connect 159 0 160 0;
#X connect 160 0 156 0;
#X connect 162 0 140 0;
#X connect 163 0 140 0;
#X connect 164 0 140 0;
#X connect 165 0 140 0;
#X connect 166 0 140 0;
#X connect 167 0 137 0;
#X connect 168 0 169 1;
#X connect 170 0 171 0;
#X connect 171 0 8 1;
#X connect 171 0 123 1;
#X connect 173 0 172 1;
#X connect 174 0 172 1;
#X connect 175 0 172 1;
#X connect 176 0 73 1;
#X connect 177 0 171 0;
#X connect 178 0 112 0;
#X connect 179 0 15 0;
#X connect 180 0 24 0;
#X connect 181 0 187 0;
#X connect 182 0 186 0;
#X connect 183 0 185 0;
#X connect 184 0 185 1;
#X connect 184 0 186 1;
#X connect 184 0 187 1;
#X connect 185 0 190 0;
#X connect 186 0 189 0;
#X connect 187 0 188 0;
#X connect 192 0 72 0;
#X connect 195 0 242 0;
#X connect 201 0 233 0;
#X connect 201 0 234 0;
#X connect 201 0 235 0;
#X connect 204 0 205 0;
#X connect 204 0 205 0;
#X connect 206 0 210 0;
#X connect 207 0 208 0;
#X connect 208 0 204 0;
#X connect 210 0 204 0;
#X connect 211 0 128 0;
#X connect 212 0 122 1;
#X connect 213 0 212 0;
#X connect 222 0 224 1;
#X connect 223 0 224 1;
#X connect 224 0 218 0;
#X connect 224 0 219 0;
#X connect 224 0 221 0;
#X connect 225 0 227 0;
#X connect 226 0 229 0;
#X connect 227 0 226 0;
#X connect 229 0 230 0;
#X connect 229 0 230 0;
#X connect 230 0 236 0;
#X connect 231 0 232 0;
#X connect 232 0 229 0;
#X connect 233 0 110 0;
#X connect 234 0 110 1;
#X connect 235 0 110 2;
#X connect 237 0 236 1;
#X connect 238 0 112 0;
#X connect 239 0 72 0;
#X connect 240 0 245 0;
#X connect 241 0 36 0;
#X connect 241 0 242 1;
#X connect 241 0 242 2;
#X connect 241 0 242 3;
#X connect 242 0 33 0;
#X connect 243 0 240 0;
#X connect 244 0 240 0;
#X connect 245 0 241 0;
#X connect 246 0 101 0;
#X connect 246 0 103 0;
#X connect 246 0 105 0;
#X connect 247 0 246 0;
#X connect 248 0 247 0;
#X connect 249 0 72 0;
#X connect 250 0 249 0;
#X connect 251 0 240 0;
#X connect 252 0 251 0;
#X connect 256 0 159 0;
