#N canvas 743 44 1070 898 10;
#X obj 19 -109 gemwin;
#X msg 19 -130 create \, 1;
#X obj -9 673 loadbang;
#X floatatom 79 379 5 0 0 0 - - -;
#X msg -9 642 draw linestrip \, width 2;
#X obj 19 -152 loadbang;
#X text 17 607 oscilloscope;
#X msg 70 -111 destroy \, 0;
#X obj 16 26 gemhead 1;
#X obj 61 426 line~;
#X obj 109 527 *~;
#X obj 45 531 *~;
#X obj 61 265 vsl 15 128 0 10 0 0 empty empty empty 0 -9 0 10 -262144
-1 -1 170 1;
#X msg 61 403 \$1 10;
#X obj 156 606 dac~;
#X floatatom 194 606 5 0 0 0 - - -;
#X obj 210 584 hsl 128 15 0 20 0 0 empty empty empty -2 -8 0 10 -262144
-1 -1 0 1;
#X msg 278 563 1;
#X msg 242 562 0.6;
#X msg 207 562 0.3;
#X obj 157 584 *~ 0.2;
#X obj 125 194 loadbang;
#X floatatom 61 243 5 0 0 0 - - -;
#X obj 174 527 *~;
#X floatatom 213 382 5 0 0 0 - - -;
#X obj 190 427 line~;
#X obj 190 266 vsl 15 128 0 10 0 0 empty empty empty 0 -9 0 10 -262144
-1 -1 270 1;
#X msg 190 404 \$1 10;
#X floatatom 190 244 5 0 0 0 - - -;
#X floatatom 156 127 5 0 0 0 - - -;
#X floatatom 143 381 5 0 0 0 - - -;
#X obj 125 428 line~;
#X obj 125 267 vsl 15 128 0 10 0 0 empty empty empty 0 -9 0 10 -262144
-1 -1 370 1;
#X msg 125 405 \$1 10;
#X floatatom 125 245 5 0 0 0 - - -;
#X msg 190 223 1;
#X obj 17 169 scaleXYZ 1 1 1;
#X obj 156 76 loadbang;
#X msg 134 106 1.8;
#X msg 194 101 1;
#X msg 2 739 draw linestrip \, width 4;
#X text 35 -71 dsp ON/OFF;
#X floatatom 18 -2 5 0 0 0 - - -;
#X obj 18 -51 dsp;
#X obj 18 -71 tgl 15 1 empty dsp_tgl empty 8 -8 0 10 -262144 -1 -1
1 1;
#X text 66 -1 % mean-cpu-load;
#X floatatom 33 -27 5 0 0 0 - - -;
#X text 79 -27 % peak-cpu-load;
#X floatatom 142 45 5 0 0 0 - - -;
#X obj 67 188 repeat 5;
#X obj 16 74 translateXYZ 0 0 0;
#X msg 103 21 13;
#X msg 166 16 1;
#X obj 16 50 repeat 1;
#X obj 354 714 scopeXYZ~ 1024;
#X obj 152 681 scopeXYZ~ 16284;
#X obj 289 626 scopeXYZ~ 40960;
#X obj 376 641 scopeXYZ~ 8192;
#X obj 570 328 nbx 5 14 -1e+37 1e+37 0 1 empty empty Xrotation 0 -8
0 10 -4034 -1 -1 360 256;
#X obj 570 367 sig~;
#X obj 669 328 nbx 5 14 -1e+37 1e+37 0 1 empty empty Yrotation 0 -8
0 10 -4034 -1 -1 254 256;
#X obj 669 368 sig~;
#X obj 759 327 nbx 5 14 -1e+37 1e+37 0 1 empty empty Zrotation 0 -8
0 10 -4034 -1 -1 123 256;
#X obj 759 367 sig~;
#X obj 570 346 / 360;
#X obj 669 346 / 360;
#X obj 759 346 / 360;
#X obj 569 406 nbx 5 14 -1e+37 1e+37 0 1 empty empty freq/100 0 -8
0 10 -4034 -1 -1 0 256;
#X obj 569 460 phasor~;
#X obj 669 406 nbx 5 14 -1e+37 1e+37 0 1 empty empty freq/100 0 -8
0 10 -4034 -1 -1 0 256;
#X obj 669 460 phasor~;
#X obj 759 406 nbx 5 14 -1e+37 1e+37 0 1 empty empty freq/100 0 -8
0 10 -4034 -1 -1 0 256;
#X obj 759 460 phasor~;
#X obj 759 430 / 100;
#X obj 669 430 / 100;
#X obj 569 430 / 100;
#X obj 425 342 VS-rotate;
#X obj 305 763 scopeXYZ~ 16284;
#X msg 15 704 draw linestrip \, width 1;
#X text 835 401 < TRZYMAJ MALA FREQ do 20;
#X msg 315 563 0;
#X obj 392 156 r~ m01;
#X obj 444 157 r~ m02;
#X obj 496 157 r~ m03;
#X obj 548 71 r~ l01;
#X obj 603 67 r~ l02;
#X obj 651 71 r~ l03;
#X obj 404 581 dac~;
#X floatatom 442 581 5 0 0 0 - - -;
#X obj 458 559 hsl 128 15 0 20 0 0 empty empty empty -2 -8 0 10 -262144
-1 -1 0 1;
#X msg 526 538 1;
#X msg 490 537 0.6;
#X msg 455 537 0.3;
#X obj 405 559 *~ 0.2;
#X msg 584 529 5;
#X msg 229 518 0;
#X msg 466 508 0.1;
#X obj 16 106 repeat 1;
#X obj 16 130 rotateXYZ 0 0 0;
#X floatatom 261 53 5 0 0 0 - - -;
#X msg 222 29 13;
#X msg 285 24 1;
#X floatatom 259 99 5 0 0 0 - - -;
#X floatatom 300 100 5 0 0 0 - - -;
#X floatatom 344 102 5 0 0 0 - - -;
#X obj 705 193 dac~;
#X floatatom 743 193 5 0 0 0 - - -;
#X obj 759 171 hsl 128 15 0 20 0 0 empty empty empty -2 -8 0 10 -262144
-1 -1 0 1;
#X msg 827 150 1;
#X msg 791 149 0.6;
#X msg 756 149 0.3;
#X obj 706 171 *~ 0.2;
#X msg 885 141 5;
#X msg 767 120 0.1;
#X msg 357 -25 5;
#X msg 399 -35 10;
#X msg 446 -42 30;
#X floatatom 427 12 5 0 0 0 - - -;
#X msg 452 63 0;
#X msg 303 48 5;
#X obj 275 504 scopeXYZ~ 10240;
#X obj 152 636 scopeXYZ~ 90960;
#X obj 252 680 scopeXYZ~ 5120;
#X msg 61 222 1;
#X msg 125 224 1;
#X obj 522 19 r a01;
#X obj 581 1 r a02;
#X obj 645 3 r a03;
#X floatatom 526 51 5 0 0 0 - - -;
#X floatatom 588 33 5 0 0 0 - - -;
#X floatatom 651 34 5 0 0 0 - - -;
#X obj 54 624 scopeXYZ~ 1628;
#X obj 18 589 scopeXYZ~ 428400;
#X connect 1 0 0 0;
#X connect 2 0 4 0;
#X connect 4 0 132 0;
#X connect 5 0 1 0;
#X connect 7 0 0 0;
#X connect 8 0 53 0;
#X connect 9 0 11 1;
#X connect 10 0 20 0;
#X connect 10 0 132 2;
#X connect 11 0 20 0;
#X connect 11 0 132 1;
#X connect 12 0 13 0;
#X connect 12 0 3 0;
#X connect 13 0 9 0;
#X connect 16 0 15 0;
#X connect 16 0 20 1;
#X connect 17 0 16 0;
#X connect 18 0 16 0;
#X connect 19 0 16 0;
#X connect 20 0 14 1;
#X connect 20 0 14 0;
#X connect 21 0 123 0;
#X connect 21 0 124 0;
#X connect 21 0 35 0;
#X connect 22 0 12 0;
#X connect 23 0 20 0;
#X connect 23 0 132 3;
#X connect 25 0 23 1;
#X connect 26 0 27 0;
#X connect 26 0 24 0;
#X connect 27 0 25 0;
#X connect 28 0 26 0;
#X connect 29 0 36 1;
#X connect 29 0 36 2;
#X connect 29 0 36 3;
#X connect 31 0 10 1;
#X connect 32 0 33 0;
#X connect 32 0 30 0;
#X connect 33 0 31 0;
#X connect 34 0 32 0;
#X connect 35 0 28 0;
#X connect 36 0 132 0;
#X connect 37 0 39 0;
#X connect 38 0 29 0;
#X connect 39 0 29 0;
#X connect 40 0 132 0;
#X connect 43 0 42 0;
#X connect 43 1 46 0;
#X connect 44 0 43 0;
#X connect 48 0 53 1;
#X connect 50 0 97 0;
#X connect 51 0 53 1;
#X connect 52 0 53 1;
#X connect 53 0 50 0;
#X connect 58 0 64 0;
#X connect 59 0 76 4;
#X connect 60 0 65 0;
#X connect 61 0 76 5;
#X connect 62 0 66 0;
#X connect 63 0 76 6;
#X connect 64 0 59 0;
#X connect 65 0 61 0;
#X connect 66 0 63 0;
#X connect 67 0 75 0;
#X connect 68 0 76 4;
#X connect 69 0 74 0;
#X connect 70 0 76 5;
#X connect 71 0 73 0;
#X connect 72 0 76 6;
#X connect 73 0 72 0;
#X connect 74 0 70 0;
#X connect 75 0 68 0;
#X connect 76 0 11 0;
#X connect 76 1 10 0;
#X connect 76 3 23 0;
#X connect 78 0 132 0;
#X connect 80 0 16 0;
#X connect 81 0 76 0;
#X connect 81 0 93 0;
#X connect 82 0 76 1;
#X connect 82 0 93 0;
#X connect 83 0 76 2;
#X connect 83 0 93 0;
#X connect 84 0 76 0;
#X connect 84 0 111 0;
#X connect 85 0 76 1;
#X connect 85 0 111 0;
#X connect 86 0 76 2;
#X connect 86 0 111 0;
#X connect 89 0 88 0;
#X connect 89 0 93 1;
#X connect 90 0 89 0;
#X connect 91 0 89 0;
#X connect 92 0 89 0;
#X connect 93 0 87 1;
#X connect 93 0 87 0;
#X connect 94 0 89 0;
#X connect 95 0 16 0;
#X connect 96 0 89 0;
#X connect 97 0 98 0;
#X connect 98 0 36 0;
#X connect 99 0 97 1;
#X connect 100 0 97 1;
#X connect 101 0 97 1;
#X connect 102 0 98 1;
#X connect 103 0 98 2;
#X connect 104 0 98 3;
#X connect 107 0 106 0;
#X connect 107 0 111 1;
#X connect 108 0 107 0;
#X connect 109 0 107 0;
#X connect 110 0 107 0;
#X connect 111 0 105 1;
#X connect 111 0 105 0;
#X connect 112 0 107 0;
#X connect 113 0 107 0;
#X connect 114 0 117 0;
#X connect 115 0 117 0;
#X connect 116 0 117 0;
#X connect 117 0 104 0;
#X connect 117 0 103 0;
#X connect 117 0 102 0;
#X connect 118 0 117 0;
#X connect 119 0 97 1;
#X connect 123 0 22 0;
#X connect 124 0 34 0;
#X connect 125 0 128 0;
#X connect 126 0 129 0;
#X connect 127 0 130 0;
#X connect 128 0 76 0;
